<svg width="190" height="83" viewBox="0 0 190 83" fill="none" xmlns="http://www.w3.org/2000/svg">
<path d="M37.9645 4.94975C39.9171 2.99713 43.0829 2.99713 45.0355 4.94975L78.0502 37.9645C80.0029 39.9171 80.0029 43.0829 78.0503 45.0355L45.0355 78.0502C43.0829 80.0029 39.9171 80.0029 37.9645 78.0503L4.94975 45.0355C2.99713 43.0829 2.99713 39.9171 4.94975 37.9645L37.9645 4.94975Z" stroke="#26C1F2" stroke-width="2"/>
<path d="M29.456 47.776H36.624V52H23.984V29.536H29.456V47.776ZM57.346 42.784C57.346 43.296 57.314 43.8293 57.25 44.384H44.866C44.9513 45.4933 45.3033 46.3467 45.922 46.944C46.562 47.52 47.3407 47.808 48.258 47.808C49.6233 47.808 50.5727 47.232 51.106 46.08H56.93C56.6313 47.2533 56.0873 48.3093 55.298 49.248C54.53 50.1867 53.5593 50.9227 52.386 51.456C51.2127 51.9893 49.9007 52.256 48.45 52.256C46.7007 52.256 45.1433 51.8827 43.778 51.136C42.4127 50.3893 41.346 49.3227 40.578 47.936C39.81 46.5493 39.426 44.928 39.426 43.072C39.426 41.216 39.7993 39.5947 40.546 38.208C41.314 36.8213 42.3807 35.7547 43.746 35.008C45.1113 34.2613 46.6793 33.888 48.45 33.888C50.178 33.888 51.714 34.2507 53.058 34.976C54.402 35.7013 55.4473 36.736 56.194 38.08C56.962 39.424 57.346 40.992 57.346 42.784ZM51.746 41.344C51.746 40.4053 51.426 39.6587 50.786 39.104C50.146 38.5493 49.346 38.272 48.386 38.272C47.4687 38.272 46.69 38.5387 46.05 39.072C45.4313 39.6053 45.0473 40.3627 44.898 41.344H51.746ZM60.4248 43.04C60.4248 41.2053 60.7661 39.5947 61.4488 38.208C62.1528 36.8213 63.1021 35.7547 64.2968 35.008C65.4914 34.2613 66.8248 33.888 68.2968 33.888C69.5554 33.888 70.6541 34.144 71.5928 34.656C72.5528 35.168 73.2888 35.84 73.8008 36.672V34.144H79.2728V52H73.8008V49.472C73.2674 50.304 72.5208 50.976 71.5608 51.488C70.6221 52 69.5234 52.256 68.2648 52.256C66.8141 52.256 65.4914 51.8827 64.2968 51.136C63.1021 50.368 62.1528 49.2907 61.4488 47.904C60.7661 46.496 60.4248 44.8747 60.4248 43.04ZM73.8008 43.072C73.8008 41.7067 73.4168 40.6293 72.6488 39.84C71.9021 39.0507 70.9848 38.656 69.8968 38.656C68.8088 38.656 67.8808 39.0507 67.1128 39.84C66.3661 40.608 65.9928 41.6747 65.9928 43.04C65.9928 44.4053 66.3661 45.4933 67.1128 46.304C67.8808 47.0933 68.8088 47.488 69.8968 47.488C70.9848 47.488 71.9021 47.0933 72.6488 46.304C73.4168 45.5147 73.8008 44.4373 73.8008 43.072ZM89.9835 37.12C90.6235 36.1387 91.4235 35.3707 92.3835 34.816C93.3435 34.24 94.4102 33.952 95.5835 33.952V39.744H94.0795C92.7142 39.744 91.6902 40.0427 91.0075 40.64C90.3248 41.216 89.9835 42.24 89.9835 43.712V52H84.5115V34.144H89.9835V37.12ZM110.359 33.952C112.45 33.952 114.114 34.6347 115.351 36C116.61 37.344 117.239 39.2 117.239 41.568V52H111.799V42.304C111.799 41.1093 111.49 40.1813 110.871 39.52C110.252 38.8587 109.42 38.528 108.375 38.528C107.33 38.528 106.498 38.8587 105.879 39.52C105.26 40.1813 104.951 41.1093 104.951 42.304V52H99.479V34.144H104.951V36.512C105.506 35.7227 106.252 35.104 107.191 34.656C108.13 34.1867 109.186 33.952 110.359 33.952ZM141.778 29.536V52H136.306V42.752H127.794V52H122.322V29.536H127.794V38.336H136.306V29.536H141.778ZM164.64 34.144V52H159.168V49.568C158.613 50.3573 157.856 50.9973 156.896 51.488C155.957 51.9573 154.912 52.192 153.76 52.192C152.394 52.192 151.189 51.8933 150.144 51.296C149.098 50.6773 148.288 49.792 147.712 48.64C147.136 47.488 146.848 46.1333 146.848 44.576V34.144H152.288V43.84C152.288 45.0347 152.597 45.9627 153.216 46.624C153.834 47.2853 154.666 47.616 155.712 47.616C156.778 47.616 157.621 47.2853 158.24 46.624C158.858 45.9627 159.168 45.0347 159.168 43.84V34.144H164.64ZM175.322 36.672C175.834 35.84 176.57 35.168 177.53 34.656C178.49 34.144 179.589 33.888 180.826 33.888C182.298 33.888 183.632 34.2613 184.826 35.008C186.021 35.7547 186.96 36.8213 187.642 38.208C188.346 39.5947 188.698 41.2053 188.698 43.04C188.698 44.8747 188.346 46.496 187.642 47.904C186.96 49.2907 186.021 50.368 184.826 51.136C183.632 51.8827 182.298 52.256 180.826 52.256C179.568 52.256 178.469 52.0107 177.53 51.52C176.592 51.008 175.856 50.336 175.322 49.504V52H169.85V28.32H175.322V36.672ZM183.13 43.04C183.13 41.6747 182.746 40.608 181.978 39.84C181.232 39.0507 180.304 38.656 179.194 38.656C178.106 38.656 177.178 39.0507 176.41 39.84C175.664 40.6293 175.29 41.7067 175.29 43.072C175.29 44.4373 175.664 45.5147 176.41 46.304C177.178 47.0933 178.106 47.488 179.194 47.488C180.282 47.488 181.21 47.0933 181.978 46.304C182.746 45.4933 183.13 44.4053 183.13 43.04Z" fill="white"/>
</svg>
