<svg width="162" height="51" viewBox="0 0 162 51" fill="none" xmlns="http://www.w3.org/2000/svg">
<g clip-path="url(#clip0_0_307)">
<path d="M85.1354 13.4657C85.1354 15.2653 83.6738 16.7143 81.8599 16.7143C80.0459 16.7143 78.5853 15.2653 78.5853 13.4657C78.5853 11.6661 79.9961 10.2171 81.8599 10.2171C83.7252 10.267 85.1354 11.7166 85.1354 13.4657ZM71.6324 20.0138V20.8137C71.6324 20.8137 70.0712 18.8134 66.7457 18.8134C61.2545 18.8134 56.9713 22.9623 56.9713 28.71C56.9713 34.4083 61.2042 38.6066 66.7457 38.6066C70.1215 38.6066 71.6324 36.5574 71.6324 36.5574V37.4068C71.6324 37.8067 71.9354 38.1058 72.3381 38.1058H76.4185V19.3118H72.3381C71.9354 19.3133 71.6324 19.6638 71.6324 20.0138ZM71.6324 32.059C70.8775 33.159 69.3655 34.1087 67.552 34.1087C64.3278 34.1087 61.8585 32.1094 61.8585 28.71C61.8585 25.3111 64.3278 23.3118 67.552 23.3118C69.3157 23.3118 70.9278 24.3115 71.6324 25.3611V32.059ZM79.4419 19.3133H84.2783V38.1073H79.4419V19.3133ZM151.691 18.813C148.365 18.813 146.803 20.8132 146.803 20.8132V10.267H141.967V38.1073H146.048C146.451 38.1073 146.753 37.7573 146.753 37.4072V36.5579C146.753 36.5579 148.315 38.6071 151.639 38.6071C157.132 38.6071 161.414 34.4098 161.414 28.7115C161.414 23.0132 157.132 18.813 151.691 18.813ZM150.884 34.0583C149.02 34.0583 147.559 33.1096 146.803 32.0091V25.3111C147.559 24.3115 149.171 23.2619 150.884 23.2619C154.109 23.2619 156.577 25.2612 156.577 28.6601C156.577 32.059 154.109 34.0583 150.884 34.0583ZM139.448 26.9614V38.1572H134.611V27.5107C134.611 24.4124 133.603 23.1621 130.884 23.1621C129.423 23.1621 127.911 23.912 126.953 25.012V38.1078H122.117V19.3138H125.945C126.348 19.3138 126.651 19.6638 126.651 20.0138V20.8137C128.061 19.3637 129.925 18.8134 131.789 18.8134C133.905 18.8134 135.669 19.4141 137.08 20.6135C138.792 22.0131 139.448 23.8122 139.448 26.9614ZM110.376 18.813C107.052 18.813 105.49 20.8132 105.49 20.8132V10.267H100.653V38.1073H104.734C105.137 38.1073 105.439 37.7573 105.439 37.4072V36.5579C105.439 36.5579 107.002 38.6071 110.326 38.6071C115.818 38.6071 120.1 34.4098 120.1 28.7115C120.151 23.0127 115.869 18.813 110.376 18.813ZM109.57 34.0583C107.706 34.0583 106.246 33.1096 105.49 32.0091V25.3111C106.246 24.3115 107.858 23.2619 109.57 23.2619C112.795 23.2619 115.264 25.2612 115.264 28.6601C115.264 32.059 112.795 34.0583 109.57 34.0583ZM96.4712 18.813C97.9318 18.813 98.6878 19.0636 98.6878 19.0636V23.5116C98.6878 23.5116 94.6572 22.1619 92.1386 25.0115V38.1567H87.3012V19.3133H91.3826C91.7858 19.3133 92.0873 19.6633 92.0873 20.0133V20.8132C92.9952 19.7632 94.9602 18.813 96.4712 18.813ZM46.2405 36.4076C45.9889 35.8079 45.7367 35.1583 45.4851 34.608C45.0814 33.7088 44.6783 32.8584 44.3264 32.059L44.2761 32.0091C40.7992 24.5112 37.0716 16.9145 33.1412 9.41768L32.9902 9.11708C32.5768 8.33937 32.174 7.5562 31.7817 6.76777C31.2774 5.86749 30.7741 4.91877 29.9678 4.01849C28.3557 2.0192 26.0379 0.919189 23.5696 0.919189C21.05 0.919189 18.7831 2.0192 17.1211 3.91813C16.3651 4.81741 15.8105 5.76713 15.3071 6.66741C14.9139 7.45535 14.5111 8.2385 14.0987 9.01672L13.9472 9.31731C10.0676 16.8141 6.2892 24.4114 2.81278 31.9087L2.76195 32.0081C2.40963 32.809 2.00597 33.6583 1.60281 34.5571C1.35115 35.1074 1.09949 35.707 0.847831 36.3567C0.192512 38.2057 -0.00932851 39.9553 0.243337 41.7554C0.79749 45.5043 3.31609 48.652 6.79301 50.0526C8.10315 50.6029 9.46362 50.8525 10.8739 50.8525C11.2771 50.8525 11.7804 50.8026 12.1841 50.7522C13.847 50.5524 15.5598 50.0032 17.2228 49.0534C19.2884 47.9035 21.2533 46.2548 23.4699 43.8555C25.6866 46.2548 27.7019 47.9035 29.7171 49.0534C31.3806 50.0032 33.0929 50.5524 34.7553 50.7522C35.1585 50.8031 35.6628 50.8525 36.066 50.8525C37.4768 50.8525 38.8871 50.6029 40.1464 50.0526C43.6736 48.652 46.1419 45.4543 46.6966 41.7554C47.0967 40.0062 46.8954 38.2576 46.2405 36.4076ZM23.5188 39.0066C20.7978 35.6077 19.0342 32.409 18.4302 29.7107C18.1786 28.5607 18.1277 27.5611 18.2792 26.6613C18.3794 25.8614 18.6824 25.1613 19.0855 24.5616C20.0429 23.213 21.655 22.3626 23.5193 22.3626C25.3841 22.3626 27.0465 23.1625 27.9535 24.5616C28.3567 25.1613 28.6587 25.8619 28.7603 26.6613C28.9108 27.5616 28.8605 28.6107 28.6088 29.7107C28.0023 32.3591 26.2387 35.5583 23.5188 39.0066ZM43.6203 41.3559C43.268 43.9549 41.5043 46.2048 39.0361 47.2045C37.8271 47.7038 36.5165 47.8541 35.2073 47.7038C33.948 47.5535 32.6877 47.1535 31.3786 46.4045C29.5646 45.4039 27.7512 43.8555 25.6347 41.5556C28.9596 37.5076 30.9749 33.8081 31.7309 30.5101C32.0837 28.9602 32.1346 27.5611 31.9826 26.2609C31.7818 25.0115 31.3277 23.8616 30.6226 22.862C29.0598 20.612 26.4395 19.3133 23.5183 19.3133C20.597 19.3133 17.9767 20.6629 16.4149 22.862C15.7098 23.8616 15.2558 25.0115 15.0545 26.2609C14.8531 27.5611 14.903 29.0101 15.3061 30.5101C16.0616 33.8081 18.1272 37.5571 21.4018 41.6056C19.3362 43.9049 17.4719 45.4548 15.658 46.4545C14.3478 47.2045 13.089 47.6044 11.8297 47.7537C10.4698 47.904 9.15912 47.7038 8.00048 47.2544C5.53221 46.2548 3.76858 44.0048 3.41626 41.4058C3.26527 40.1565 3.36543 38.9072 3.86975 37.5076C4.02024 37.0073 4.27291 36.508 4.52456 35.9083C4.87739 35.1084 5.27954 34.258 5.6832 33.4087L5.73405 33.3093C9.20996 25.8614 12.938 18.2642 16.8176 10.8672L16.9686 10.5666C17.3723 9.81764 17.7754 9.01772 18.1781 8.26774C18.5812 7.46782 19.0342 6.71783 19.5889 6.06771C20.6468 4.86934 22.0571 4.21872 23.6194 4.21872C25.1817 4.21872 26.592 4.86934 27.65 6.06771C28.2047 6.71933 28.6576 7.46932 29.0608 8.26774C29.4645 9.01772 29.8676 9.81764 30.2698 10.5666L30.4213 10.8672C34.2417 18.2949 37.9203 25.7936 41.455 33.3592V33.4092C41.8587 34.2101 42.211 35.1089 42.6141 35.9098C42.8658 36.5085 43.118 37.0078 43.269 37.5081C43.6711 38.8064 43.8221 40.0567 43.6203 41.3559Z" fill="#CFCFDE"/>
</g>
<defs>
<clipPath id="clip0_0_307">
<rect width="161.323" height="49.9333" fill="white" transform="translate(0.112305 0.919678)"/>
</clipPath>
</defs>
</svg>
